<?xml version="1.0" encoding="UTF-8"?>
<svg id="final_svg" data-name="final svg" xmlns="http://www.w3.org/2000/svg" viewBox="0 0 350 350">
  <defs>
    <style>
      .cls-1 {
        fill: #1c1c1c;
      }
    </style>
  </defs>
  <path id="default" class="cls-1" d="M276.81,183.73c6.6-2.26,28.41-4.52,18.06-14.73-8.39-6.18-54.66-5.82-45.4-20.78,2.64-10.19,38.88-25.08,30.31-35.98-6.63-4.2-11.36-4.75-17.64-.11-41.95,28.28-36.11-7.98-24.74-37.12-5.55-21.14-26.45,11.27-29.94,19.79-30.26,29.85-19.96-68.56-40.12-34.26-6.02,10.86-6.39,19.51-6.27,31.21-8.89,23.29-31.67-5.07-34.3-18.83-6.79-12.78-25.26-1.9-15.81,9.71,5.79,10.45,7.91,21.22,12.01,32.27-4.3,20.21-41.26-7.81-52.63-3.12-18.15,23.78,82.89,47.27-5.01,55.65-6.75-.54-16.75,3.82-12.87,12.01,11.58,12.23,58.11,2.7,44.97,27.87-11.64,5.6-46.85,31.5-16.77,33.93,21.51-8.6,52.07-29.91,38.85,12.97-6.92,9.39-16.89,36.99,5.2,27.58,12.45-7.78,12.64-31.31,28.43-30.04,22.48,2.03.65,42.8,23.14,46.89,21.31-9.53-3.53-77.59,41.16-33.86,4.3,7.99,8.64,20.57,20.21,14.03,13.5-14.8-19.24-40.5-4.97-51.84,10.35-3.53,20,9.73,30.93,8.5,12.9,7.45,25.63-7.1,13.81-13.59-26.55-13.67-42.36-36.28-.64-38.19ZM197.84,178.44c-5.12,1.9-9.79,4.01-14.06,7.45-4.41,3.22-4.88,24.74-12.11,16.02-5.22-15.45-4.92-17.25-20.5-23.91-8.19-7.83,10.4-9.24,13.78-14.06,4.41-3.14,5.18-24.58,12.08-15.81,6.15,29.15,30.6,18.27,20.81,30.31Z"/>
</svg>